REM DIRINDEX 1\2\6,1\2\7,1\2\8,1\2\9,1\3\10,1\3\11,1\4\12,1\4\13,1\4\14,1\5\15,1\5\16,1\5\17
REM DIRNAME folder01,folder02,folder03,folder04,folder05,folder06,folder07,folder08,folder09,folder10,folder11,folder12,folder13,folder14,folder15,folder16,folder17
TITLE ""
FILE "1400_2_sec08_0769_0784.mp3" MP3
  TRACK 01 AUDIO
    TITLE "0:"
    INDEX 01 00:00:00
  TRACK 02 AUDIO
    TITLE "13:cjc029_3135"
    INDEX 01 00:00:17
  TRACK 03 AUDIO
    TITLE "0:"
    INDEX 01 00:01:50
  TRACK 04 AUDIO
    TITLE "14:cjc029_3136"
    INDEX 01 00:01:54
  TRACK 05 AUDIO
    TITLE "0:"
    INDEX 01 00:04:56
  TRACK 06 AUDIO
    TITLE "13:cjc029_3137"
    INDEX 01 00:05:38
  TRACK 07 AUDIO
    TITLE "0:"
    INDEX 01 00:06:53
  TRACK 08 AUDIO
    TITLE "14:cjc029_3138"
    INDEX 01 00:06:57
  TRACK 09 AUDIO
    TITLE "0:"
    INDEX 01 00:09:42
  TRACK 10 AUDIO
    TITLE "13:cjc029_3139"
    INDEX 01 00:10:25
  TRACK 11 AUDIO
    TITLE "0:"
    INDEX 01 00:11:44
  TRACK 12 AUDIO
    TITLE "14:cjc029_3140"
    INDEX 01 00:11:50
  TRACK 13 AUDIO
    TITLE "0:"
    INDEX 01 00:13:57
  TRACK 14 AUDIO
    TITLE "13:cjc029_3141"
    INDEX 01 00:14:45
  TRACK 15 AUDIO
    TITLE "0:"
    INDEX 01 00:15:46
  TRACK 16 AUDIO
    TITLE "14:cjc029_3142"
    INDEX 01 00:15:48
  TRACK 17 AUDIO
    TITLE "0:"
    INDEX 01 00:20:32
  TRACK 18 AUDIO
    TITLE "13:cjc029_3143"
    INDEX 01 00:21:15
  TRACK 19 AUDIO
    TITLE "0:"
    INDEX 01 00:22:40
  TRACK 20 AUDIO
    TITLE "14:cjc029_3144"
    INDEX 01 00:22:42
  TRACK 21 AUDIO
    TITLE "0:"
    INDEX 01 00:24:61
  TRACK 22 AUDIO
    TITLE "13:cjc029_3145"
    INDEX 01 00:25:43
  TRACK 23 AUDIO
    TITLE "0:"
    INDEX 01 00:26:54
  TRACK 24 AUDIO
    TITLE "14:cjc029_3146"
    INDEX 01 00:26:60
  TRACK 25 AUDIO
    TITLE "0:"
    INDEX 01 00:30:69
  TRACK 26 AUDIO
    TITLE "13:cjc029_3147"
    INDEX 01 00:31:51
  TRACK 27 AUDIO
    TITLE "0:"
    INDEX 01 00:32:48
  TRACK 28 AUDIO
    TITLE "14:cjc029_3148"
    INDEX 01 00:32:54
  TRACK 29 AUDIO
    TITLE "0:"
    INDEX 01 00:34:71
  TRACK 30 AUDIO
    TITLE "13:cjc029_3149"
    INDEX 01 00:35:57
  TRACK 31 AUDIO
    TITLE "0:"
    INDEX 01 00:37:14
  TRACK 32 AUDIO
    TITLE "14:cjc029_3150"
    INDEX 01 00:37:16
  TRACK 33 AUDIO
    TITLE "0:"
    INDEX 01 00:38:35
  TRACK 34 AUDIO
    TITLE "12:cjc029_3151"
    INDEX 01 00:40:07
  TRACK 35 AUDIO
    TITLE "0:"
    INDEX 01 00:41:51
  TRACK 36 AUDIO
    TITLE "13:cjc029_3152"
    INDEX 01 00:42:53
  TRACK 37 AUDIO
    TITLE "0:"
    INDEX 01 00:44:18
  TRACK 38 AUDIO
    TITLE "14:cjc029_3153"
    INDEX 01 00:44:22
  TRACK 39 AUDIO
    TITLE "0:"
    INDEX 01 00:47:15
  TRACK 40 AUDIO
    TITLE "13:cjc029_3154"
    INDEX 01 00:47:74
  TRACK 41 AUDIO
    TITLE "0:"
    INDEX 01 00:49:21
  TRACK 42 AUDIO
    TITLE "14:cjc029_3155"
    INDEX 01 00:49:23
  TRACK 43 AUDIO
    TITLE "0:"
    INDEX 01 00:50:46
  TRACK 44 AUDIO
    TITLE "13:cjc029_3156"
    INDEX 01 00:51:28
  TRACK 45 AUDIO
    TITLE "0:"
    INDEX 01 00:52:47
  TRACK 46 AUDIO
    TITLE "14:cjc029_3157"
    INDEX 01 00:52:53
  TRACK 47 AUDIO
    TITLE "0:"
    INDEX 01 00:55:53
  TRACK 48 AUDIO
    TITLE "13:cjc029_3158"
    INDEX 01 00:56:35
  TRACK 49 AUDIO
    TITLE "0:"
    INDEX 01 00:57:58
  TRACK 50 AUDIO
    TITLE "14:cjc029_3159"
    INDEX 01 00:57:64
  TRACK 51 AUDIO
    TITLE "0:"
    INDEX 01 00:59:12
  TRACK 52 AUDIO
    TITLE "13:cjc029_3160"
    INDEX 01 00:59:69
  TRACK 53 AUDIO
    TITLE "0:"
    INDEX 01 01:00:74
  TRACK 54 AUDIO
    TITLE "14:cjc029_3161"
    INDEX 01 01:01:05
  TRACK 55 AUDIO
    TITLE "0:"
    INDEX 01 01:03:53
  TRACK 56 AUDIO
    TITLE "13:cjc029_3162"
    INDEX 01 01:04:35
  TRACK 57 AUDIO
    TITLE "0:"
    INDEX 01 01:05:48
  TRACK 58 AUDIO
    TITLE "14:cjc029_3163"
    INDEX 01 01:05:52
  TRACK 59 AUDIO
    TITLE "0:"
    INDEX 01 01:08:03
  TRACK 60 AUDIO
    TITLE "13:cjc029_3164"
    INDEX 01 01:08:60
  TRACK 61 AUDIO
    TITLE "0:"
    INDEX 01 01:10:02
  TRACK 62 AUDIO
    TITLE "14:cjc029_3165"
    INDEX 01 01:10:06
  TRACK 63 AUDIO
    TITLE "0:"
    INDEX 01 01:12:62
  TRACK 64 AUDIO
    TITLE "13:cjc029_3166"
    INDEX 01 01:13:45
  TRACK 65 AUDIO
    TITLE "0:"
    INDEX 01 01:15:05
  TRACK 66 AUDIO
    TITLE "14:cjc029_3167"
    INDEX 01 01:15:09
  TRACK 67 AUDIO
    TITLE "0:"
    INDEX 01 01:16:40
